<mxfile host="app.diagrams.net" agent="Mozilla/5.0 (Macintosh; Intel Mac OS X 10_15_7) AppleWebKit/537.36 (KHTML, like Gecko) Chrome/128.0.0.0 Safari/537.36" version="24.7.8">
  <diagram name="Page-1" id="VE5iRudhEEBALWitj2TW">
    <mxGraphModel dx="1234" dy="1155" grid="1" gridSize="10" guides="1" tooltips="1" connect="1" arrows="1" fold="1" page="1" pageScale="1" pageWidth="850" pageHeight="1100" math="0" shadow="0">
      <root>
        <mxCell id="0" />
        <mxCell id="1" parent="0" />
        <mxCell id="PZXfa57pYInq_oqZtf1K-1" value="UseCase" style="html=1;whiteSpace=wrap;" vertex="1" parent="1">
          <mxGeometry x="190" y="360" width="110" height="50" as="geometry" />
        </mxCell>
        <mxCell id="PZXfa57pYInq_oqZtf1K-2" value="«interface»&lt;br&gt;&lt;b&gt;IService&lt;/b&gt;" style="html=1;whiteSpace=wrap;" vertex="1" parent="1">
          <mxGeometry x="390" y="360" width="110" height="50" as="geometry" />
        </mxCell>
        <mxCell id="PZXfa57pYInq_oqZtf1K-3" value="" style="endArrow=open;endFill=1;endSize=12;html=1;rounded=0;exitX=1;exitY=0.5;exitDx=0;exitDy=0;entryX=0;entryY=0.5;entryDx=0;entryDy=0;" edge="1" parent="1" source="PZXfa57pYInq_oqZtf1K-1" target="PZXfa57pYInq_oqZtf1K-2">
          <mxGeometry width="160" relative="1" as="geometry">
            <mxPoint x="340" y="420" as="sourcePoint" />
            <mxPoint x="500" y="420" as="targetPoint" />
          </mxGeometry>
        </mxCell>
        <mxCell id="PZXfa57pYInq_oqZtf1K-4" value="Service" style="html=1;whiteSpace=wrap;" vertex="1" parent="1">
          <mxGeometry x="580" y="360" width="110" height="50" as="geometry" />
        </mxCell>
        <mxCell id="PZXfa57pYInq_oqZtf1K-5" value="" style="endArrow=block;dashed=1;endFill=0;endSize=12;html=1;rounded=0;entryX=1;entryY=0.5;entryDx=0;entryDy=0;exitX=0;exitY=0.5;exitDx=0;exitDy=0;" edge="1" parent="1" source="PZXfa57pYInq_oqZtf1K-4" target="PZXfa57pYInq_oqZtf1K-2">
          <mxGeometry width="160" relative="1" as="geometry">
            <mxPoint x="340" y="420" as="sourcePoint" />
            <mxPoint x="500" y="420" as="targetPoint" />
          </mxGeometry>
        </mxCell>
        <mxCell id="PZXfa57pYInq_oqZtf1K-6" value="Repository" style="html=1;whiteSpace=wrap;" vertex="1" parent="1">
          <mxGeometry x="960" y="360" width="110" height="50" as="geometry" />
        </mxCell>
        <mxCell id="PZXfa57pYInq_oqZtf1K-7" value="«interface»&lt;br&gt;&lt;b&gt;IRepository&lt;/b&gt;" style="html=1;whiteSpace=wrap;" vertex="1" parent="1">
          <mxGeometry x="760" y="360" width="110" height="50" as="geometry" />
        </mxCell>
        <mxCell id="PZXfa57pYInq_oqZtf1K-8" value="" style="endArrow=open;endFill=1;endSize=12;html=1;rounded=0;exitX=1;exitY=0.5;exitDx=0;exitDy=0;entryX=0;entryY=0.5;entryDx=0;entryDy=0;" edge="1" parent="1" source="PZXfa57pYInq_oqZtf1K-4" target="PZXfa57pYInq_oqZtf1K-7">
          <mxGeometry width="160" relative="1" as="geometry">
            <mxPoint x="610" y="420" as="sourcePoint" />
            <mxPoint x="770" y="420" as="targetPoint" />
          </mxGeometry>
        </mxCell>
        <mxCell id="PZXfa57pYInq_oqZtf1K-9" value="" style="endArrow=block;dashed=1;endFill=0;endSize=12;html=1;rounded=0;entryX=1;entryY=0.5;entryDx=0;entryDy=0;exitX=0;exitY=0.5;exitDx=0;exitDy=0;" edge="1" parent="1" source="PZXfa57pYInq_oqZtf1K-6" target="PZXfa57pYInq_oqZtf1K-7">
          <mxGeometry width="160" relative="1" as="geometry">
            <mxPoint x="610" y="420" as="sourcePoint" />
            <mxPoint x="770" y="420" as="targetPoint" />
          </mxGeometry>
        </mxCell>
        <mxCell id="PZXfa57pYInq_oqZtf1K-10" value="Entity" style="html=1;whiteSpace=wrap;" vertex="1" parent="1">
          <mxGeometry x="1170" y="360" width="110" height="50" as="geometry" />
        </mxCell>
        <mxCell id="PZXfa57pYInq_oqZtf1K-11" value="" style="endArrow=open;endFill=1;endSize=12;html=1;rounded=0;exitX=1;exitY=0.5;exitDx=0;exitDy=0;entryX=0;entryY=0.5;entryDx=0;entryDy=0;" edge="1" parent="1" source="PZXfa57pYInq_oqZtf1K-6" target="PZXfa57pYInq_oqZtf1K-10">
          <mxGeometry width="160" relative="1" as="geometry">
            <mxPoint x="610" y="420" as="sourcePoint" />
            <mxPoint x="770" y="420" as="targetPoint" />
          </mxGeometry>
        </mxCell>
      </root>
    </mxGraphModel>
  </diagram>
</mxfile>
